<?xml version="1.0" encoding="UTF-8"?>
<svg version="1.1" xmlns="http://www.w3.org/2000/svg" width="700" height="700">
<path d="M0 0 C0.92916229 0.00182281 1.85832458 0.00364563 2.81564331 0.00552368 C53.50646411 0.17181189 102.40207109 12.14710603 147.9375 34.3125 C148.81583496 34.73337891 149.69416992 35.15425781 150.59912109 35.58789062 C171.77085629 45.80956091 191.95086479 59.17316998 209.9375 74.3125 C210.4855127 74.7672168 211.03352539 75.22193359 211.59814453 75.69042969 C218.71801265 81.60240884 225.5990455 87.76009143 232.375 94.0625 C233.0251709 94.66416992 233.6753418 95.26583984 234.34521484 95.88574219 C238.26381651 99.56779841 241.86655575 103.41461306 245.36743164 107.49511719 C247.31918053 109.75430218 249.37951249 111.90012182 251.4375 114.0625 C267.3565674 131.53464714 280.32773201 151.79434035 291.9375 172.3125 C292.31229492 172.96879395 292.68708984 173.62508789 293.07324219 174.30126953 C315.45894039 213.80718618 328.08793379 259.19810148 331.9375 304.3125 C332.02427002 305.32691162 332.02427002 305.32691162 332.11279297 306.36181641 C338.97480313 391.12902204 312.14420483 478.78240065 257.24682617 544.00439453 C254.84514328 546.80524801 252.3997572 549.56488752 249.9375 552.3125 C249.49374023 552.81265625 249.04998047 553.3128125 248.59277344 553.828125 C238.3697499 565.32997236 227.69137026 576.69889298 215.578125 586.2265625 C212.81459213 588.40958995 210.16584902 590.69902976 207.5 593 C152.13953933 638.97974076 79.44863588 663.52285739 7.9375 665.3125 C7.18936035 665.33441406 6.4412207 665.35632813 5.67041016 665.37890625 C-60.99893139 667.11924147 -131.49533121 647.09001995 -186.0625 608.3125 C-187.21984175 607.50360523 -188.37740701 606.69503019 -189.53515625 605.88671875 C-204.04263599 595.69937382 -218.35893375 584.60124456 -230.609375 571.73828125 C-232.02503702 570.20323009 -232.02503702 570.20323009 -234.0625 569.3125 C-234.0625 568.6525 -234.0625 567.9925 -234.0625 567.3125 C-234.7225 567.3125 -235.3825 567.3125 -236.0625 567.3125 C-237.54296875 565.80859375 -237.54296875 565.80859375 -239.25 563.75 C-241.54978702 561.03767387 -243.87304465 558.46283357 -246.4375 556 C-296.24788731 506.85523034 -323.4201389 433.52342446 -331.0625 365.3125 C-331.1670752 364.38405273 -331.27165039 363.45560547 -331.37939453 362.49902344 C-332.32950915 352.79391707 -332.30611096 343.05503319 -332.3125 333.3125 C-332.31317474 332.38453613 -332.31384949 331.45657227 -332.31454468 330.50048828 C-332.2087545 238.48082808 -293.08346447 155.0755932 -228.61035156 90.67504883 C-223.36743966 85.51135309 -217.85652108 80.84834499 -212.0625 76.3125 C-211.00394003 75.43277124 -209.94809099 74.54977339 -208.89453125 73.6640625 C-164.62900062 36.77192253 -110.31591132 13.80319878 -53.8125 4.0625 C-52.93996582 3.91119629 -52.06743164 3.75989258 -51.16845703 3.60400391 C-34.19348963 0.87108665 -17.17217613 -0.0708015 0 0 Z " fill="#000000" transform="translate(350.0625,17.6875)"/>
<path d="M0 0 C1.29461655 0.00222061 2.58923309 0.00444122 3.92308044 0.00672913 C4.99131546 0.00651009 4.99131546 0.00651009 6.08113098 0.00628662 C8.4457143 0.00698581 10.81021979 0.01477846 13.17478943 0.02259827 C14.81003781 0.02446243 16.44528675 0.02588634 18.08053589 0.02688599 C22.39273103 0.03071134 26.7048927 0.04054177 31.01707458 0.05158997 C35.41404263 0.06180371 39.81101607 0.06638353 44.20799255 0.07142639 C52.8414732 0.08216403 61.47492017 0.09976096 70.10838318 0.12025452 C70.43838318 6.39025452 70.76838318 12.66025452 71.10838318 19.12025452 C78.03838318 19.12025452 84.96838318 19.12025452 92.10838318 19.12025452 C92.33525818 22.23462952 92.56213318 25.34900452 92.79588318 28.55775452 C94.5637531 48.42274521 101.20803992 66.2221642 113.54197693 81.98353577 C115.10838318 84.12025452 115.10838318 84.12025452 116.10838318 87.12025452 C133.67058272 100.19791687 149.7642763 101.12025452 172.10838318 101.12025452 C172.10838318 125.54025452 172.10838318 149.96025452 172.10838318 175.12025452 C142.94787378 175.12025452 119.43545614 172.35907294 94.10838318 158.12025452 C93.04490662 157.54404358 91.98143005 156.96783264 90.88572693 156.37416077 C85.54831702 153.3920982 80.62140755 150.09238865 75.74900818 146.39759827 C75.20260681 145.98441345 74.65620544 145.57122864 74.09324646 145.14552307 C72.76327886 144.13931673 71.43558824 143.1301019 70.10838318 142.12025452 C70.11207035 142.92972597 70.11575752 143.73919743 70.11955643 144.57319832 C70.208308 164.36734675 70.27428611 184.1614604 70.31563187 203.95576668 C70.3361633 213.52857279 70.36410122 223.10124522 70.41014099 232.67396545 C70.4502999 241.02797861 70.47588421 249.38189483 70.48473716 257.73600185 C70.48990332 262.15000672 70.50184304 266.56373457 70.53130341 270.97764969 C70.81925599 315.87345189 62.23809074 355.0185558 30.10838318 388.12025452 C22.20436997 396.04916225 13.60510317 402.28816269 4.10838318 408.12025452 C3.53700623 408.47861389 2.96562927 408.83697327 2.37693787 409.20619202 C-25.2206656 426.24847298 -61.77413559 431.74763737 -93.33546448 424.75404358 C-107.56631466 421.22555389 -120.91558337 416.20796453 -133.62599182 408.90541077 C-136.59766454 407.09054757 -136.59766454 407.09054757 -138.95899963 406.64149475 C-141.46904584 405.96451791 -142.62017181 404.48498243 -144.36036682 402.62806702 C-146.15367888 400.86220361 -148.07251741 399.38933505 -150.07911682 397.87025452 C-159.57890915 390.55667268 -167.50978561 382.57900773 -174.89161682 373.12025452 C-175.5077887 372.33134827 -176.12396057 371.54244202 -176.75880432 370.72962952 C-186.99756804 356.85775609 -195.16922933 339.94460474 -198.89161682 323.12025452 C-199.31120667 321.23306702 -199.31120667 321.23306702 -199.73927307 319.30775452 C-206.71482213 284.9328234 -199.69448419 248.63318004 -180.89161682 219.12025452 C-175.48043473 211.25382076 -169.42650026 204.06966414 -162.89161682 197.12025452 C-162.36567932 196.52986389 -161.83974182 195.93947327 -161.29786682 195.33119202 C-139.84947291 172.24133938 -106.10394264 158.3782773 -74.93507385 156.98841858 C-56.37569428 156.51515878 -56.37569428 156.51515878 -47.89161682 158.12025452 C-46.89161682 159.12025452 -46.89161682 159.12025452 -46.79396057 162.93666077 C-46.80063593 164.51872134 -46.81259807 166.1007661 -46.82911682 167.68275452 C-46.83362854 168.48906311 -46.83814026 169.2953717 -46.8427887 170.12611389 C-46.85461164 172.12419208 -46.87254768 174.12223235 -46.89161682 176.12025452 C-45.8784137 176.10865295 -44.86521057 176.09705139 -43.82130432 176.08509827 C-42.46974368 176.07571243 -41.11818102 176.06661308 -39.76661682 176.05775452 C-39.10146057 176.04937561 -38.43630432 176.0409967 -37.75099182 176.03236389 C-33.58781447 176.01195616 -30.06012727 176.42550277 -25.89161682 177.12025452 C-25.89161682 201.54025452 -25.89161682 225.96025452 -25.89161682 251.12025452 C-28.53161682 250.79025452 -31.17161682 250.46025452 -33.89161682 250.12025452 C-53.43965733 248.88682175 -70.2095342 251.92772307 -85.57911682 264.93275452 C-97.95031136 276.63523583 -104.83688378 291.94032385 -105.89161682 308.88197327 C-105.89161682 319.12500396 -104.04847645 328.77096672 -99.89161682 338.12025452 C-99.55517151 338.95685608 -99.2187262 339.79345764 -98.87208557 340.65541077 C-96.73724339 345.29473211 -94.84693211 347.57177326 -90.07911682 349.55775452 C-88.36813308 350.13552554 -86.63511853 350.64963098 -84.89161682 351.12025452 C-83.69149963 351.47216858 -82.49138245 351.82408264 -81.25489807 352.18666077 C-63.74961475 356.46080069 -47.24259034 352.80562027 -32.07911682 343.80775452 C-31.33017151 343.3166217 -30.5812262 342.82548889 -29.80958557 342.31947327 C-27.89161682 341.12025452 -27.89161682 341.12025452 -24.89161682 340.12025452 C-24.89161682 339.46025452 -24.89161682 338.80025452 -24.89161682 338.12025452 C-24.04599182 337.48087952 -23.20036682 336.84150452 -22.32911682 336.18275452 C-17.62390549 332.4475749 -14.91724335 327.21913118 -11.89161682 322.12025452 C-11.40779976 321.36285343 -10.92398269 320.60545234 -10.42550451 319.82509971 C-5.32476475 310.83049631 -4.30426132 301.20540967 -4.37936401 291.06062317 C-4.36917048 289.18904569 -4.36917048 289.18904569 -4.35877103 287.27965856 C-4.34403954 283.85597984 -4.34687258 280.43317073 -4.35747039 277.0095346 C-4.36452369 273.30278596 -4.34837897 269.5961259 -4.33512878 265.8894043 C-4.31529553 259.48022719 -4.30976487 253.07116898 -4.31406593 246.66196442 C-4.32017659 237.39446602 -4.30325069 228.1271187 -4.280656 218.859651 C-4.24451341 203.81940624 -4.22529825 188.77919131 -4.21754456 173.73890686 C-4.20996758 159.13830699 -4.19684244 144.53773444 -4.17457581 129.93714905 C-4.17320511 129.0360702 -4.17183441 128.13499134 -4.17042217 127.20660707 C-4.15530578 117.37657226 -4.138581 107.54654075 -4.1206007 97.71651077 C-4.11824274 96.42229983 -4.11824274 96.42229983 -4.11583715 95.10194321 C-4.10290988 88.01166069 -4.10290988 88.01166069 -4.09681954 84.75782564 C-4.07798864 74.65476832 -4.06411876 64.55173106 -4.05902388 54.44865701 C-4.05579258 48.12264604 -4.04954485 41.79664347 -4.04089562 35.47063759 C-4.03515721 31.11213396 -4.03355276 26.75365577 -4.03512951 22.39514898 C-4.03502768 19.14878743 -4.02850729 15.9024382 -4.0229187 12.65608215 C-4.02554426 10.90531675 -4.02554426 10.90531675 -4.02822286 9.11918235 C-4.02521521 8.06973953 -4.02220756 7.0202967 -4.01910877 5.93905258 C-4.01837414 4.56952946 -4.01837414 4.56952946 -4.01762468 3.1723392 C-3.81739972 -0.08839849 -3.3186423 0.13801335 0 0 Z " fill="#FEFDFE" transform="translate(357.89161682128906,127.87974548339844)"/>
<path d="M0 0 C6.93 0 13.86 0 21 0 C21 24.09 21 48.18 21 73 C-14.86735104 75.98894592 -48.41335063 65.38282428 -76.20703125 42.53125 C-77.16246369 41.71528155 -78.11155876 40.88844124 -79 40 C-79.00358253 41.20924196 -79.00358253 41.20924196 -79.00723743 42.44291306 C-79.0666182 62.14468838 -79.14231353 81.84634089 -79.23571491 101.54798508 C-79.28049977 111.07592404 -79.31995332 120.60382707 -79.34643555 130.13183594 C-79.36955691 138.44561212 -79.40310972 146.7592729 -79.44870156 155.07295728 C-79.47244511 159.46667208 -79.49129641 163.86027393 -79.49761391 168.25405121 C-79.56707787 211.01316431 -79.56707787 211.01316431 -85.6875 230.25 C-85.94168701 231.06807129 -86.19587402 231.88614258 -86.45776367 232.72900391 C-97.25939419 266.01005286 -122.092523 293.98138558 -152.96044922 309.96826172 C-185.91708088 326.63988314 -223.32412763 330.23709986 -258.625 318.8125 C-278.48181056 312.02279842 -295.97561372 301.68079325 -311 287 C-307.77811487 287 -306.59371746 287.53556931 -303.78125 288.9765625 C-302.94126465 289.39736084 -302.1012793 289.81815918 -301.23583984 290.25170898 C-300.3330127 290.70489502 -299.43018555 291.15808105 -298.5 291.625 C-262.85911524 308.97382387 -226.29886056 309.96678804 -189.0078125 297.234375 C-155.71297452 285.25871989 -129.77129671 259.16685784 -114.55859375 227.6171875 C-107.76831196 211.85828791 -102.93561254 193.21709446 -102.84178162 176.04603577 C-102.83684364 175.38260286 -102.83190566 174.71916996 -102.82681805 174.03563303 C-102.81156929 171.8324328 -102.80311705 169.6292614 -102.79467773 167.42602539 C-102.78508926 165.83880362 -102.77507862 164.25158434 -102.76467896 162.66436768 C-102.73772885 158.36948069 -102.71666595 154.07458282 -102.69667697 149.77965856 C-102.67475613 145.28598266 -102.64739737 140.79233991 -102.62062073 136.2986908 C-102.5707761 127.79556834 -102.52580685 119.2924274 -102.48259836 110.78926891 C-102.43315551 101.10607666 -102.37826359 91.42291769 -102.32291877 81.73975766 C-102.20922512 61.82653613 -102.10235877 41.91328281 -102 22 C-99.38697315 23.28278846 -97.02444354 24.60400367 -94.671875 26.3203125 C-82.27828858 35.20017939 -69.56175076 42.30962476 -55 47 C-53.13214844 47.63228516 -53.13214844 47.63228516 -51.2265625 48.27734375 C-33.92070167 54.03831334 -18.9702817 54.27037378 0 55 C0 36.85 0 18.7 0 0 Z " fill="#FC2A55" transform="translate(530,248)"/>
<path d="M0 0 C1.29461655 0.00222061 2.58923309 0.00444122 3.92308044 0.00672913 C4.99131546 0.00651009 4.99131546 0.00651009 6.08113098 0.00628662 C8.4457143 0.00698581 10.81021979 0.01477846 13.17478943 0.02259827 C14.81003781 0.02446243 16.44528675 0.02588634 18.08053589 0.02688599 C22.39273103 0.03071134 26.7048927 0.04054177 31.01707458 0.05158997 C35.41404263 0.06180371 39.81101607 0.06638353 44.20799255 0.07142639 C52.8414732 0.08216403 61.47492017 0.09976096 70.10838318 0.12025452 C70.43838318 6.39025452 70.76838318 12.66025452 71.10838318 19.12025452 C53.94838318 19.12025452 36.78838318 19.12025452 19.10838318 19.12025452 C19.11726563 22.84536819 19.12614807 26.57048187 19.13529968 30.40847778 C19.21498151 64.60861676 19.27465331 98.80874412 19.3126445 133.00895566 C19.31764702 137.49600663 19.32282434 141.98305739 19.32810974 146.47010803 C19.32915898 147.36335781 19.33020822 148.25660758 19.33128926 149.17692553 C19.34867037 163.61951266 19.38019535 178.06203576 19.41699436 192.50458498 C19.45446775 207.33606617 19.47663253 222.16751395 19.48473716 236.99904054 C19.49021169 246.1428192 19.5074705 255.28641686 19.54004905 264.43013977 C19.56127602 270.70967014 19.56756481 276.98910763 19.56238869 283.26867122 C19.55983956 286.88575438 19.56360549 290.50252241 19.58520508 294.1195488 C19.71312347 316.68158291 18.64534378 336.85873636 2.10838318 354.12025452 C1.44838318 354.12025452 0.78838318 354.12025452 0.10838318 354.12025452 C0.10838318 354.78025452 0.10838318 355.44025452 0.10838318 356.12025452 C-9.91869262 366.17385697 -25.31777734 372.83425652 -39.38136292 373.18177795 C-51.08366321 373.15155619 -61.35454332 372.58560442 -71.89161682 367.12025452 C-72.80942932 366.64459045 -73.72724182 366.16892639 -74.67286682 365.67884827 C-76.77845653 364.53832051 -78.84518819 363.3629179 -80.89161682 362.12025452 C-80.89161682 361.46025452 -80.89161682 360.80025452 -80.89161682 360.12025452 C-81.44849182 360.05837952 -82.00536682 359.99650452 -82.57911682 359.93275452 C-85.87203353 358.77578378 -87.53381236 356.65489432 -89.89161682 354.12025452 C-91.03630432 352.97556702 -91.03630432 352.97556702 -92.20411682 351.80775452 C-92.76099182 351.25087952 -93.31786682 350.69400452 -93.89161682 350.12025452 C-93.56161682 349.46025452 -93.23161682 348.80025452 -92.89161682 348.12025452 C-92.00345276 348.48119202 -91.1152887 348.84212952 -90.20021057 349.21400452 C-75.13427369 354.86976688 -58.19505436 355.9592638 -43.14283752 349.68861389 C-38.50054887 347.58032559 -34.07112871 345.11404803 -29.80958557 342.31947327 C-27.89161682 341.12025452 -27.89161682 341.12025452 -24.89161682 340.12025452 C-24.89161682 339.46025452 -24.89161682 338.80025452 -24.89161682 338.12025452 C-24.04599182 337.48087952 -23.20036682 336.84150452 -22.32911682 336.18275452 C-17.62390549 332.4475749 -14.91724335 327.21913118 -11.89161682 322.12025452 C-11.40779976 321.36285343 -10.92398269 320.60545234 -10.42550451 319.82509971 C-5.32476475 310.83049631 -4.30426132 301.20540967 -4.37936401 291.06062317 C-4.36917048 289.18904569 -4.36917048 289.18904569 -4.35877103 287.27965856 C-4.34403954 283.85597984 -4.34687258 280.43317073 -4.35747039 277.0095346 C-4.36452369 273.30278596 -4.34837897 269.5961259 -4.33512878 265.8894043 C-4.31529553 259.48022719 -4.30976487 253.07116898 -4.31406593 246.66196442 C-4.32017659 237.39446602 -4.30325069 228.1271187 -4.280656 218.859651 C-4.24451341 203.81940624 -4.22529825 188.77919131 -4.21754456 173.73890686 C-4.20996758 159.13830699 -4.19684244 144.53773444 -4.17457581 129.93714905 C-4.17320511 129.0360702 -4.17183441 128.13499134 -4.17042217 127.20660707 C-4.15530578 117.37657226 -4.138581 107.54654075 -4.1206007 97.71651077 C-4.11902873 96.85370348 -4.11745676 95.99089618 -4.11583715 95.10194321 C-4.10290988 88.01166069 -4.10290988 88.01166069 -4.09681954 84.75782564 C-4.07798864 74.65476832 -4.06411876 64.55173106 -4.05902388 54.44865701 C-4.05579258 48.12264604 -4.04954485 41.79664347 -4.04089562 35.47063759 C-4.03515721 31.11213396 -4.03355276 26.75365577 -4.03512951 22.39514898 C-4.03502768 19.14878743 -4.02850729 15.9024382 -4.0229187 12.65608215 C-4.02466907 11.48890522 -4.02641945 10.32172828 -4.02822286 9.11918235 C-4.02371139 7.54501811 -4.02371139 7.54501811 -4.01910877 5.93905258 C-4.01861902 5.02603717 -4.01812927 4.11302175 -4.01762468 3.1723392 C-3.81739972 -0.08839849 -3.3186423 0.13801335 0 0 Z " fill="#1FEDE4" transform="translate(357.89161682128906,127.87974548339844)"/>
<path d="M0 0 C1 1 1 1 1.09765625 4.81640625 C1.09098089 6.39846682 1.07901875 7.98051159 1.0625 9.5625 C1.05798828 10.36880859 1.05347656 11.17511719 1.04882812 12.00585938 C1.03700518 14.00393756 1.01906914 16.00197783 1 18 C0.18732666 18.08564209 -0.62534668 18.17128418 -1.46264648 18.25952148 C-5.12142841 18.64764956 -8.77945574 19.04248266 -12.4375 19.4375 C-13.71689453 19.57220703 -14.99628906 19.70691406 -16.31445312 19.84570312 C-18.13686523 20.04389648 -18.13686523 20.04389648 -19.99609375 20.24609375 C-21.68496704 20.42676392 -21.68496704 20.42676392 -23.40795898 20.61108398 C-25.92419872 20.72607948 -25.92419872 20.72607948 -27 22 C-28.31642919 22.30313491 -29.64123136 22.57017089 -30.96875 22.8203125 C-36.10342933 23.91915013 -40.70434241 25.77054341 -45.5 27.875 C-46.68529297 28.38353516 -46.68529297 28.38353516 -47.89453125 28.90234375 C-49.478874 29.58431125 -51.06086405 30.27177211 -52.64038086 30.96484375 C-54.23149685 31.66286049 -55.82617606 32.35280356 -57.42407227 33.03515625 C-61.53536133 34.81043731 -65.27924813 36.63034767 -68.9375 39.25 C-72.7970297 42 -72.7970297 42 -75 42 C-75 42.66 -75 43.32 -75 44 C-76.32 44.33 -77.64 44.66 -79 45 C-79 45.66 -79 46.32 -79 47 C-84.41176471 51 -84.41176471 51 -87 51 C-87.33451172 51.83144531 -87.33451172 51.83144531 -87.67578125 52.6796875 C-89.40876782 55.71624805 -91.64945835 57.72348749 -94.1875 60.125 C-99.20972968 64.99136172 -103.16755446 70.14097331 -107 76 C-107.91083078 77.25425877 -108.82695215 78.50470468 -109.75 79.75 C-111.83299526 82.75877093 -113.42475437 85.70630459 -115 89 C-115.46148437 89.72316406 -115.92296875 90.44632812 -116.3984375 91.19140625 C-118.34043831 94.59701255 -119.67266431 98.13813063 -121 101.8125 C-121.5 103.17317708 -122 104.53385417 -122.5 105.89453125 C-122.86859131 106.91740234 -122.86859131 106.91740234 -123.24462891 107.9609375 C-123.7381451 109.29314411 -124.25522818 110.61691851 -124.79833984 111.9296875 C-126.9951087 117.32287081 -127.88091928 122.61682985 -128.625 128.375 C-128.86424202 130.15404442 -129.10629035 131.93271441 -129.3515625 133.7109375 C-129.45291504 134.48743652 -129.55426758 135.26393555 -129.65869141 136.06396484 C-130 138 -130 138 -131 140 C-132.19064343 156.52468754 -131.66539411 174.34099392 -125.7421875 190.00390625 C-124.89406235 192.28491652 -124.26858962 194.59092887 -123.625 196.9375 C-122.03981922 202.30208548 -119.61262615 207.0726041 -117 212 C-116.443125 213.134375 -115.88625 214.26875 -115.3125 215.4375 C-113.99222311 218.13559388 -113.99222311 218.13559388 -112 221 C-112 221.99 -112 222.98 -112 224 C-111.34 224 -110.68 224 -110 224 C-109.34 225.98 -108.68 227.96 -108 230 C-107.34 230 -106.68 230 -106 230 C-104.5625 231.86328125 -104.5625 231.86328125 -103 234.3125 C-102.2265625 235.51326172 -102.2265625 235.51326172 -101.4375 236.73828125 C-100.963125 237.48464844 -100.48875 238.23101563 -100 239 C-99.34 239.99 -98.68 240.98 -98 242 C-120.6426518 231.97784265 -135.58242476 204.41008245 -145 183 C-145.52980469 181.79730469 -146.05960938 180.59460938 -146.60546875 179.35546875 C-159.55343722 148.20055302 -155.86614294 111.22841489 -143.48632812 80.61132812 C-136.81919592 64.83627084 -126.68681678 51.42814471 -115 39 C-114.4740625 38.40960938 -113.948125 37.81921875 -113.40625 37.2109375 C-86.38436782 8.12105413 -39.01379908 -7.38098902 0 0 Z " fill="#1EEEE5" transform="translate(310,286)"/>
<path d="M0 0 C15 0 15 0 21 1 C21 25.42 21 49.84 21 75 C18.36 74.67 15.72 74.34 13 74 C-6.5480405 72.76656723 -23.31791738 75.80746855 -38.6875 88.8125 C-51.05869454 100.51498132 -57.94526696 115.82006933 -59 132.76171875 C-59 146.39640222 -55.29506257 158.08434584 -49 170 C-61.90777374 165.51135075 -70.10684204 153.669349 -76.3125 142.125 C-83.48035748 126.96898527 -83.91961716 110.78986117 -78.71875 94.95507812 C-73.22464275 80.01050923 -62.10976004 68.21165513 -48 61 C-47.35933594 60.62488281 -46.71867187 60.24976563 -46.05859375 59.86328125 C-31.3222888 51.58756929 -15.78628032 53.35701223 0 57 C0 38.19 0 19.38 0 0 Z " fill="#FD2B56" transform="translate(311,304)"/>
<path d="M0 0 C6.6 0 13.2 0 20 0 C20.226875 3.114375 20.45375 6.22875 20.6875 9.4375 C22.46045727 29.35965568 29.13387021 47.17811938 41.53125 62.9609375 C43 65 43 65 43 67 C26.82321104 61.54975569 15.55662778 41.26964154 8 27 C7.59136719 26.27425781 7.18273437 25.54851562 6.76171875 24.80078125 C2.57210218 17.08476927 0 8.76032246 0 0 Z " fill="#FB2D56" transform="translate(430,147)"/>
<path d="M0 0 C0.76376953 0.4021875 0.76376953 0.4021875 1.54296875 0.8125 C4.74044062 2.35786001 8.01746594 3.68068012 11.3125 5 C11.95123047 5.26039063 12.58996094 5.52078125 13.24804688 5.7890625 C15.15576161 6.5544678 17.07336036 7.28370785 19 8 C20.04671875 8.38929688 21.0934375 8.77859375 22.171875 9.1796875 C27.76701144 10.37864531 33.23479583 10.20929239 38.9375 10.125 C40.67870117 10.11146484 40.67870117 10.11146484 42.45507812 10.09765625 C45.30347495 10.07421265 48.15176481 10.03834572 51 10 C51 16.27 51 22.54 51 29 C37.54765651 27.31845706 27.36252463 23.01853096 16 16 C16 15.34 16 14.68 16 14 C15.443125 13.731875 14.88625 13.46375 14.3125 13.1875 C13.1678125 12.5996875 13.1678125 12.5996875 12 12 C11.236875 11.62875 10.47375 11.2575 9.6875 10.875 C5.81704694 8.17468391 2.8903282 4.71494633 0 1 C0 0.67 0 0.34 0 0 Z " fill="#22E8E0" transform="translate(479,219)"/>
</svg>
